<svg xmlns="http://www.w3.org/2000/svg" version="1.1" viewBox="-5.0 -10.0 110.0 135.0">
 <path d="m29.102 20.699c-0.69922 0-1.1992 0.5-1.1992 1.1992v56.102c0 0.69922 0.5 1.1992 1.1992 1.1992 0.69922 0 1.1992-0.5 1.1992-1.1992v-56.102c0-0.59766-0.5-1.1992-1.1992-1.1992z"/>
 <path d="m35.102 31.5c-0.69922 0-1.1992 0.5-1.1992 1.1992v35.199c0 0.69922 0.5 1.1992 1.1992 1.1992 0.69922 0 1.1992-0.5 1.1992-1.1992v-35.199c0-0.69922-0.60156-1.1992-1.1992-1.1992z"/>
 <path d="m41 40.398c-0.69922 0-1.1992 0.5-1.1992 1.1992v16.699c0 0.69922 0.5 1.1992 1.1992 1.1992s1.1992-0.5 1.1992-1.1992v-16.695c0-0.60156-0.5-1.2031-1.1992-1.2031z"/>
 <path d="m47 45.199c-0.69922 0-1.1992 0.5-1.1992 1.1992v7.1992c0 0.69922 0.5 1.1992 1.1992 1.1992s1.1992-0.5 1.1992-1.1992v-7.1992c0-0.59766-0.5-1.1992-1.1992-1.1992z"/>
 <path d="m23.102 31.5c-0.69922 0-1.1992 0.5-1.1992 1.1992v35.199c0 0.69922 0.5 1.1992 1.1992 1.1992 0.69922 0 1.1992-0.5 1.1992-1.1992v-35.199c0-0.69922-0.5-1.1992-1.1992-1.1992z"/>
 <path d="m17.199 40.398c-0.69922 0-1.1992 0.5-1.1992 1.1992v16.699c0 0.69922 0.5 1.1992 1.1992 1.1992s1.1992-0.5 1.1992-1.1992v-16.695c0-0.60156-0.59766-1.2031-1.1992-1.2031z"/>
 <path d="m11.199 45.199c-0.69922 0-1.1992 0.5-1.1992 1.1992v7.1992c0 0.69922 0.5 1.1992 1.1992 1.1992s1.1992-0.5 1.1992-1.1992v-7.1992c0-0.59766-0.5-1.1992-1.1992-1.1992z"/>
 <path d="m70.898 20.699c-0.69922 0-1.1992 0.5-1.1992 1.1992v56.102c0 0.69922 0.5 1.1992 1.1992 1.1992 0.69922 0 1.1992-0.5 1.1992-1.1992l0.003906-56.102c0-0.59766-0.5-1.1992-1.2031-1.1992z"/>
 <path d="m76.898 31.5c-0.69922 0-1.1992 0.5-1.1992 1.1992v35.199c0 0.69922 0.5 1.1992 1.1992 1.1992 0.69922 0 1.1992-0.5 1.1992-1.1992l0.003906-35.199c0-0.69922-0.60156-1.1992-1.2031-1.1992z"/>
 <path d="m82.801 40.398c-0.69922 0-1.1992 0.5-1.1992 1.1992v16.699c0 0.69922 0.5 1.1992 1.1992 1.1992s1.1992-0.5 1.1992-1.1992v-16.695c0-0.60156-0.5-1.2031-1.1992-1.2031z"/>
 <path d="m88.801 45.199c-0.69922 0-1.1992 0.5-1.1992 1.1992v7.1992c0 0.69922 0.5 1.1992 1.1992 1.1992s1.1992-0.5 1.1992-1.1992v-7.1992c0-0.59766-0.5-1.1992-1.1992-1.1992z"/>
 <path d="m64.898 31.5c-0.69922 0-1.1992 0.5-1.1992 1.1992v35.199c0 0.69922 0.5 1.1992 1.1992 1.1992 0.69922 0 1.1992-0.5 1.1992-1.1992l0.003906-35.199c0-0.69922-0.5-1.1992-1.2031-1.1992z"/>
 <path d="m59 40.398c-0.69922 0-1.1992 0.5-1.1992 1.1992v16.699c0 0.69922 0.5 1.1992 1.1992 1.1992s1.1992-0.5 1.1992-1.1992v-16.695c-0.097657-0.60156-0.59766-1.2031-1.1992-1.2031z"/>
 <path d="m53 45.199c-0.69922 0-1.1992 0.5-1.1992 1.1992v7.1992c0 0.69922 0.5 1.1992 1.1992 1.1992s1.1992-0.5 1.1992-1.1992v-7.1992c0-0.59766-0.59766-1.1992-1.1992-1.1992z"/>
<text x="0.0" y="117.5" font-size="5.0" font-weight="bold" font-family="Arbeit Regular, Helvetica, Arial-Unicode, Arial, Sans-serif" fill="#000000">Created by Rahmad romadoni</text><text x="0.0" y="122.5" font-size="5.0" font-weight="bold" font-family="Arbeit Regular, Helvetica, Arial-Unicode, Arial, Sans-serif" fill="#000000">from Noun Project</text></svg>